<svg width="16" height="16" viewBox="0 0 16 16" fill="none" xmlns="http://www.w3.org/2000/svg">
<path d="M2.66669 9.00002V12.6C2.66669 13.7334 3.59335 14.6667 4.73335 14.6667H11.2667C12.4 14.6667 13.3334 13.74 13.3334 12.6V9.00002C13.3334 8.81335 13.1867 8.66669 13 8.66669H3.00002C2.81335 8.66669 2.66669 8.81335 2.66669 9.00002ZM5.92002 12.2534C5.76669 12.4134 5.55335 12.5 5.33335 12.5C5.28002 12.5 5.22669 12.4934 5.17335 12.4867C5.12002 12.4734 5.06669 12.46 5.01335 12.4334C4.96669 12.4134 4.91335 12.3867 4.87335 12.36C4.82669 12.3267 4.78002 12.2934 4.74669 12.2534C4.58669 12.1 4.50002 11.8867 4.50002 11.6667C4.50002 11.4467 4.58669 11.2334 4.74669 11.08C4.78002 11.04 4.82669 11.0067 4.87335 10.9734C4.91335 10.9467 4.96669 10.92 5.01335 10.9C5.06669 10.8734 5.12002 10.86 5.17335 10.8467C5.44002 10.7934 5.72669 10.8867 5.92002 11.08C6.08002 11.2334 6.16669 11.4467 6.16669 11.6667C6.16669 11.8867 6.08002 12.1 5.92002 12.2534ZM11.2534 12.2534C11.22 12.2934 11.1734 12.3267 11.1267 12.36C11.0867 12.3867 11.0334 12.4134 10.9867 12.4334C10.9334 12.46 10.88 12.4734 10.8334 12.4867C10.7734 12.4934 10.72 12.5 10.6667 12.5C10.6134 12.5 10.56 12.4934 10.5067 12.4867C10.4534 12.4734 10.4 12.46 10.3467 12.4334C10.3 12.4134 10.2467 12.3867 10.2067 12.36C10.16 12.3267 10.1134 12.2934 10.08 12.2534C9.92002 12.1 9.83335 11.8867 9.83335 11.6667C9.83335 11.4467 9.92002 11.2334 10.08 11.08C10.1134 11.04 10.16 11.0067 10.2067 10.9734C10.2467 10.9467 10.3 10.92 10.3467 10.9C10.4 10.8734 10.4534 10.86 10.5067 10.8467C10.6134 10.8267 10.72 10.8267 10.8334 10.8467C10.88 10.86 10.9334 10.8734 10.9867 10.9C11.0334 10.92 11.0867 10.9467 11.1267 10.9734C11.1734 11.0067 11.22 11.04 11.2534 11.08C11.4134 11.2334 11.5 11.4467 11.5 11.6667C11.5 11.8867 11.4134 12.1 11.2534 12.2534Z" fill="#444444"/>
<path d="M11.2667 1.33331H4.73335C3.59335 1.33331 2.66669 2.25998 2.66669 3.39998V4.99998C2.66669 5.18665 2.81335 5.33331 3.00002 5.33331H13C13.1867 5.33331 13.3334 5.18665 13.3334 4.99998V3.39998C13.3334 2.25998 12.4067 1.33331 11.2667 1.33331ZM9.66669 3.83331H6.33335C6.06002 3.83331 5.83335 3.60665 5.83335 3.33331C5.83335 3.05998 6.06002 2.83331 6.33335 2.83331H9.66669C9.94002 2.83331 10.1667 3.05998 10.1667 3.33331C10.1667 3.60665 9.94002 3.83331 9.66669 3.83331Z" fill="#444444"/>
<path d="M13 8H3.00002C2.81335 8 2.66669 7.85333 2.66669 7.66667V6.33333C2.66669 6.14667 2.81335 6 3.00002 6H13C13.1867 6 13.3334 6.14667 13.3334 6.33333V7.66667C13.3334 7.85333 13.1867 8 13 8Z" fill="#444444"/>
</svg>
