<svg width="16" height="16" viewBox="0 0 16 16" fill="none" xmlns="http://www.w3.org/2000/svg">
<path d="M12.22 3.77998L4.39334 11.6066C4.10001 11.9 3.60668 11.86 3.36668 11.5133C2.54001 10.3066 2.05334 8.87998 2.05334 7.41331V4.48665C2.05334 3.93998 2.46668 3.31998 2.97334 3.11331L6.68668 1.59331C7.52668 1.24665 8.46001 1.24665 9.30001 1.59331L12 2.69331C12.44 2.87331 12.5533 3.44665 12.22 3.77998Z" fill="#444444"/>
<path d="M12.8467 4.69333C13.28 4.32667 13.94 4.64 13.94 5.20667V7.41333C13.94 10.6733 11.5733 13.7267 8.33998 14.62C8.11998 14.68 7.87998 14.68 7.65332 14.62C6.70665 14.3533 5.82665 13.9067 5.07332 13.32C4.75332 13.0733 4.71998 12.6067 4.99998 12.32C6.45332 10.8333 10.7067 6.5 12.8467 4.69333Z" fill="#444444"/>
</svg>
